<?xml version="1.0" standalone="no"?>
<!DOCTYPE svg PUBLIC "-//W3C//DTD SVG 20010904//EN"
 "http://www.w3.org/TR/2001/REC-SVG-20010904/DTD/svg10.dtd">
<svg version="1.0" xmlns="http://www.w3.org/2000/svg"
 width="16.000000pt" height="16.000000pt" viewBox="0 0 16.000000 16.000000"
 preserveAspectRatio="xMidYMid meet">
<metadata>
Created by potrace 1.11, written by Peter Selinger 2001-2013
</metadata>
<g transform="translate(0.000000,16.000000) scale(0.001928,-0.001928)"
fill="#000000" stroke="none">
<path d="M4765 6805 c-86 -46 -139 -88 -240 -189 -101 -101 -198 -219 -270
-328 -34 -53 -58 -70 -67 -50 -6 13 -163 139 -194 155 l-30 16 -79 -101 c-82
-103 -269 -289 -325 -322 l-32 -18 15 28 c8 17 11 36 7 44 -16 31 -28 66 -36
105 -16 72 -83 82 -115 18 -67 -133 -125 -163 -518 -273 -374 -104 -523 -171
-653 -293 -33 -30 -32 -27 -13 -92 15 -48 18 -63 30 -130 3 -16 10 -52 15 -80
17 -94 31 -220 33 -300 l2 -80 -35 5 c-107 14 -424 2 -542 -20 -29 -6 -66 -13
-83 -16 -299 -52 -674 -199 -915 -360 -110 -73 -277 -188 -415 -285 -60 -43
-154 -108 -208 -146 -97 -68 -98 -68 -91 -103 3 -19 11 -41 17 -49 12 -14 125
-91 134 -91 9 0 185 -121 253 -173 69 -53 188 -155 230 -197 35 -35 179 -145
275 -211 361 -248 752 -404 1085 -434 41 -4 77 -9 79 -10 1 -2 -13 -52 -33
-112 -83 -252 -101 -379 -111 -808 -9 -368 -8 -417 6 -426 28 -18 79 -8 195
39 106 43 224 82 294 98 14 3 30 6 35 8 6 2 28 6 50 10 65 13 198 46 225 56
14 6 34 12 45 14 66 13 330 126 450 193 51 28 196 122 205 133 3 3 25 21 50
40 61 47 182 172 237 245 25 33 48 60 52 60 4 0 23 -12 42 -27 195 -154 347
-267 488 -362 98 -66 137 -74 359 -75 194 0 218 7 253 78 15 28 29 54 31 56 3
3 53 -13 112 -35 127 -48 292 -95 367 -106 82 -12 247 -8 263 5 8 7 17 23 20
37 11 41 97 224 153 324 45 80 155 260 162 264 3 3 31 -1 61 -8 73 -17 122
-12 211 20 241 87 447 225 714 479 277 264 384 364 474 441 19 16 39 34 45 40
7 6 70 55 141 109 186 141 329 231 524 332 46 23 86 44 88 46 2 2 -25 19 -59
37 -35 18 -83 46 -108 63 -25 17 -64 44 -88 60 -118 81 -299 287 -397 451
-106 180 -304 595 -360 757 -26 74 -64 171 -86 217 -33 68 -44 82 -57 76 -19
-8 -202 -12 -275 -6 l-47 4 -21 70 c-27 89 -22 172 15 254 29 64 32 59 -45 99
-46 24 -249 98 -249 90 0 -2 -14 0 -31 5 -78 23 -300 31 -449 18 -75 -7 -88
-9 -188 -29 -30 -6 -55 -9 -56 -7 -2 1 -25 44 -51 93 -50 93 -112 181 -161
227 -34 31 -141 91 -204 113 -43 16 -56 20 -98 29 -117 27 -164 48 -306 141
-62 41 -122 75 -133 75 -11 0 -42 -11 -68 -25z"/>
</g>
</svg>
